<svg width="24" height="18" viewBox="0 0 24 18" fill="none" xmlns="http://www.w3.org/2000/svg">
<g clip-path="url(#clip0_1488_4556)">
<g clip-path="url(#clip1_1488_4556)">
<rect y="0.272949" width="24" height="17.4545" rx="2.18182" fill="white"/>
<path fill-rule="evenodd" clip-rule="evenodd" d="M0 0.272949H10.2857V8.4184H0V0.272949Z" fill="#1A47B8"/>
<path fill-rule="evenodd" clip-rule="evenodd" d="M10.2857 0.272949V1.43659H24V0.272949H10.2857ZM10.2857 2.60022V3.76386H24V2.60022H10.2857ZM10.2857 4.9275V6.09113H24V4.9275H10.2857ZM10.2857 7.25477V8.4184H24V7.25477H10.2857ZM0 9.58204V10.7457H24V9.58204H0ZM0 11.9093V13.073H24V11.9093H0ZM0 14.2366V15.4002H24V14.2366H0ZM0 16.5639V17.7275H24V16.5639H0Z" fill="#F93939"/>
<path fill-rule="evenodd" clip-rule="evenodd" d="M1.14282 1.43701V2.60065H2.28568V1.43701H1.14282ZM3.42854 1.43701V2.60065H4.57139V1.43701H3.42854ZM5.71425 1.43701V2.60065H6.85711V1.43701H5.71425ZM7.99997 1.43701V2.60065H9.14282V1.43701H7.99997ZM6.85711 2.60065V3.76428H7.99997V2.60065H6.85711ZM4.57139 2.60065V3.76428H5.71425V2.60065H4.57139ZM2.28568 2.60065V3.76428H3.42854V2.60065H2.28568ZM1.14282 3.76428V4.92792H2.28568V3.76428H1.14282ZM3.42854 3.76428V4.92792H4.57139V3.76428H3.42854ZM5.71425 3.76428V4.92792H6.85711V3.76428H5.71425ZM7.99997 3.76428V4.92792H9.14282V3.76428H7.99997ZM1.14282 6.09156V7.25519H2.28568V6.09156H1.14282ZM3.42854 6.09156V7.25519H4.57139V6.09156H3.42854ZM5.71425 6.09156V7.25519H6.85711V6.09156H5.71425ZM7.99997 6.09156V7.25519H9.14282V6.09156H7.99997ZM6.85711 4.92792V6.09156H7.99997V4.92792H6.85711ZM4.57139 4.92792V6.09156H5.71425V4.92792H4.57139ZM2.28568 4.92792V6.09156H3.42854V4.92792H2.28568Z" fill="white"/>
</g>
</g>
<defs>
<clipPath id="clip0_1488_4556">
<rect width="24" height="17.4545" fill="white" transform="translate(0 0.272949)"/>
</clipPath>
<clipPath id="clip1_1488_4556">
<rect y="0.272949" width="24" height="17.4545" rx="2.18182" fill="white"/>
</clipPath>
</defs>
</svg>
