<svg width="20" height="20" viewBox="0 0 20 20" fill="none" xmlns="http://www.w3.org/2000/svg">
<path fill-rule="evenodd" clip-rule="evenodd" d="M17.5167 4.16675H15.8333V2.48341C15.8333 2.03341 15.4667 1.66675 15.0167 1.66675H14.9917C14.5333 1.66675 14.1667 2.03341 14.1667 2.48341V4.16675H12.4917C12.0417 4.16675 11.675 4.53341 11.6667 4.98341V5.00841C11.6667 5.46675 12.0333 5.83341 12.4917 5.83341H14.1667V7.50841C14.1667 7.95841 14.5333 8.33341 14.9917 8.32508H15.0167C15.4667 8.32508 15.8333 7.95841 15.8333 7.50841V5.83341H17.5167C17.9667 5.83341 18.3333 5.46675 18.3333 5.01675V4.98341C18.3333 4.53341 17.9667 4.16675 17.5167 4.16675ZM13.3333 7.50841V6.66675H12.4917C12.05 6.66675 11.6333 6.49175 11.3167 6.18341C11.0083 5.86675 10.8333 5.45008 10.8333 4.98341C10.8333 4.68341 10.9167 4.40841 11.0583 4.16675H4.16667C3.25 4.16675 2.5 4.91675 2.5 5.83341V15.8334C2.5 16.7501 3.25 17.5001 4.16667 17.5001H14.1667C15.0833 17.5001 15.8333 16.7501 15.8333 15.8334V8.93341C15.5833 9.07508 15.3 9.16675 14.9833 9.16675C14.075 9.15841 13.3333 8.41675 13.3333 7.50841ZM5 15.8334H13.3C13.65 15.8334 13.8417 15.4334 13.625 15.1584L11.1667 12.0917C11 11.8751 10.675 11.8834 10.5083 12.1001L8.33333 15.0001L7 12.9917C6.83333 12.7584 6.49167 12.7417 6.31667 12.9751L4.66667 15.1667C4.45833 15.4417 4.65833 15.8334 5 15.8334Z" fill="#637381"/>
</svg>
