<svg width="20" height="20" viewBox="0 0 20 20" fill="none" xmlns="http://www.w3.org/2000/svg">
<path d="M10 18.3332C7.30905 18.3985 5.0727 16.274 5 13.5832V5.10823C5.05003 3.16319 6.66311 1.62462 8.60833 1.66656C10.5568 1.61995 12.175 3.15987 12.225 5.10823V13.5916C12.1531 14.7653 11.1801 15.6805 10.0042 15.6805C8.82819 15.6805 7.85527 14.7653 7.78333 13.5916V5.76656C7.78333 5.30632 8.15643 4.93322 8.61667 4.93322C9.0769 4.93322 9.45 5.30632 9.45 5.76656V13.5916C9.48439 13.8715 9.72214 14.0818 10.0042 14.0818C10.2862 14.0818 10.5239 13.8715 10.5583 13.5916V5.10823C10.5044 4.08223 9.63486 3.29071 8.60833 3.33322C7.58499 3.29539 6.72058 4.08561 6.66667 5.10823V13.5832C6.73889 15.3537 8.22931 16.7323 10 16.6666C11.7707 16.7323 13.2611 15.3537 13.3333 13.5832V5.10823C13.3333 4.64799 13.7064 4.27489 14.1667 4.27489C14.6269 4.27489 15 4.64799 15 5.10823V13.5832C14.9273 16.274 12.6909 18.3985 10 18.3332Z" fill="#637381"/>
</svg>
