<svg width="16" height="16" viewBox="0 0 16 16" fill="none" xmlns="http://www.w3.org/2000/svg">
<path fill-rule="evenodd" clip-rule="evenodd" d="M8.00016 1.33337C4.31826 1.33337 1.3335 4.31814 1.3335 8.00004C1.3335 11.6819 4.31826 14.6667 8.00016 14.6667C11.6821 14.6667 14.6668 11.6819 14.6668 8.00004C14.6668 6.23193 13.9645 4.53624 12.7142 3.286C11.464 2.03575 9.76827 1.33337 8.00016 1.33337ZM8.66683 10.6667C8.66683 11.0349 8.36835 11.3334 8.00016 11.3334C7.63197 11.3334 7.3335 11.0349 7.3335 10.6667V7.33337C7.3335 6.96518 7.63197 6.66671 8.00016 6.66671C8.36835 6.66671 8.66683 6.96518 8.66683 7.33337V10.6667ZM7.3335 5.33337C7.3335 5.70156 7.63197 6.00004 8.00016 6.00004C8.36835 6.00004 8.66683 5.70156 8.66683 5.33337C8.66683 4.96518 8.36835 4.66671 8.00016 4.66671C7.63197 4.66671 7.3335 4.96518 7.3335 5.33337Z" fill="#637381"/>
</svg>
