<svg width="25" height="24" viewBox="0 0 25 24" fill="none" xmlns="http://www.w3.org/2000/svg">
<path fill-rule="evenodd" clip-rule="evenodd" d="M17.6433 15.9L21.0433 19.29C21.2326 19.4778 21.3391 19.7334 21.3391 20C21.3391 20.2666 21.2326 20.5222 21.0433 20.71C20.8555 20.8993 20.5999 21.0058 20.3333 21.0058C20.0666 21.0058 19.811 20.8993 19.6233 20.71L16.2333 17.31C14.8357 18.407 13.1099 19.0022 11.3333 19C6.91497 19 3.33325 15.4183 3.33325 11C3.33325 6.58172 6.91497 3 11.3333 3C15.7515 3 19.3333 6.58172 19.3333 11C19.3355 12.7767 18.7402 14.5025 17.6433 15.9ZM11.3333 5C8.01954 5 5.33325 7.68629 5.33325 11C5.33325 14.3137 8.01954 17 11.3333 17C14.647 17 17.3333 14.3137 17.3333 11C17.3333 7.68629 14.647 5 11.3333 5Z" fill="#637381"/>
</svg>
