<svg width="24" height="24" viewBox="0 0 24 24" fill="none" xmlns="http://www.w3.org/2000/svg">
<path d="M17.54 8.31001C18.8986 8.31001 20 7.20863 20 5.85001C20 4.49139 18.8986 3.39001 17.54 3.39001C16.1814 3.39001 15.08 4.49139 15.08 5.85001C15.08 7.20863 16.1814 8.31001 17.54 8.31001Z" stroke="#032482" stroke-width="1.5" stroke-miterlimit="10" stroke-linecap="round" stroke-linejoin="round"/>
<path opacity="0.4" d="M6.46001 8.31001C7.81863 8.31001 8.92 7.20863 8.92 5.85001C8.92 4.49139 7.81863 3.39001 6.46001 3.39001C5.10139 3.39001 4 4.49139 4 5.85001C4 7.20863 5.10139 8.31001 6.46001 8.31001Z" stroke="#F02D00" stroke-width="1.5" stroke-miterlimit="10" stroke-linecap="round" stroke-linejoin="round"/>
<path opacity="0.4" d="M17.54 20.6099C18.8986 20.6099 20 19.5086 20 18.1499C20 16.7913 18.8986 15.6899 17.54 15.6899C16.1814 15.6899 15.08 16.7913 15.08 18.1499C15.08 19.5086 16.1814 20.6099 17.54 20.6099Z" stroke="#F02D00" stroke-width="1.5" stroke-miterlimit="10" stroke-linecap="round" stroke-linejoin="round"/>
<path d="M6.46001 20.6099C7.81863 20.6099 8.92 19.5086 8.92 18.1499C8.92 16.7913 7.81863 15.6899 6.46001 15.6899C5.10139 15.6899 4 16.7913 4 18.1499C4 19.5086 5.10139 20.6099 6.46001 20.6099Z" stroke="#032482" stroke-width="1.5" stroke-miterlimit="10" stroke-linecap="round" stroke-linejoin="round"/>
</svg>
