<svg width="24" height="24" viewBox="0 0 24 24" fill="none" xmlns="http://www.w3.org/2000/svg">
<path d="M9.99999 18.9999C9.76634 19.0004 9.53991 18.919 9.35999 18.7699C9.15549 18.6004 9.02685 18.3564 9.00246 18.0919C8.97807 17.8274 9.05993 17.564 9.22999 17.3599L13.71 11.9999L9.38999 6.62994C9.22222 6.42335 9.14372 6.1584 9.17188 5.89376C9.20003 5.62912 9.33251 5.38662 9.53999 5.21994C9.74916 5.03591 10.0256 4.94747 10.3028 4.97594C10.5799 5.00442 10.8326 5.14722 11 5.36994L15.83 11.3699C16.1333 11.7389 16.1333 12.2709 15.83 12.6399L10.83 18.6399C10.6265 18.8854 10.3182 19.0191 9.99999 18.9999Z" fill="white"/>
</svg>
