<svg width="24" height="24" viewBox="0 0 24 24" fill="none" xmlns="http://www.w3.org/2000/svg">
<path d="M13.5001 12.0001C13.5001 12.8285 12.8285 13.5001 12.0001 13.5001C11.1716 13.5001 10.5001 12.8285 10.5001 12.0001C10.5001 11.1717 11.1716 10.5001 12.0001 10.5001C12.8285 10.5001 13.5001 11.1717 13.5001 12.0001Z" fill="#637381"/>
<path fill-rule="evenodd" clip-rule="evenodd" d="M11.7301 5.00012C17.7101 4.82012 21.2301 10.3901 21.8701 11.5001C22.0487 11.8095 22.0487 12.1907 21.8701 12.5001C21.0101 14.0001 17.8001 18.8601 12.2701 19.0001H12.0201C6.13007 19.0001 2.76007 13.5901 2.13007 12.5001C1.95144 12.1907 1.95144 11.8095 2.13007 11.5001C3.00007 10.0001 6.20007 5.14012 11.7301 5.00012ZM8.50007 12.0001C8.50007 13.9331 10.0671 15.5001 12.0001 15.5001C13.9331 15.5001 15.5001 13.9331 15.5001 12.0001C15.5001 10.0671 13.9331 8.50012 12.0001 8.50012C10.0671 8.50012 8.50007 10.0671 8.50007 12.0001Z" fill="#637381"/>
</svg>
