<svg width="20" height="20" viewBox="0 0 20 20" fill="none" xmlns="http://www.w3.org/2000/svg">
<path d="M9.99984 12.5001C11.8408 12.5001 13.3332 11.0077 13.3332 9.16675V5.00008C13.3332 3.15913 11.8408 1.66675 9.99984 1.66675C8.15889 1.66675 6.6665 3.15913 6.6665 5.00008V9.16675C6.6665 11.0077 8.15889 12.5001 9.99984 12.5001Z" fill="#637381"/>
<path d="M15.8332 9.16675C15.8332 8.70651 15.4601 8.33342 14.9998 8.33342C14.5396 8.33342 14.1665 8.70651 14.1665 9.16675C14.1665 11.4679 12.301 13.3334 9.99984 13.3334C7.69865 13.3334 5.83317 11.4679 5.83317 9.16675C5.83317 8.70651 5.46007 8.33342 4.99984 8.33342C4.5396 8.33342 4.1665 8.70651 4.1665 9.16675C4.1699 12.0639 6.29906 14.5195 9.1665 14.9334V16.6667H7.40817C6.99856 16.6667 6.6665 16.9988 6.6665 17.4084V17.5917C6.6665 18.0014 6.99856 18.3334 7.40817 18.3334H12.5915C13.0011 18.3334 13.3332 18.0014 13.3332 17.5917V17.4084C13.3332 16.9988 13.0011 16.6667 12.5915 16.6667H10.8332V14.9334C13.7006 14.5195 15.8298 12.0639 15.8332 9.16675Z" fill="#637381"/>
</svg>
