<svg width="179" height="72" viewBox="0 0 179 72" fill="none" xmlns="http://www.w3.org/2000/svg">
<path d="M83 39.6C83 39.6 83.1 39.6 83 39.6C88.6 39.3 93.1 34.9 93.6 29.5C93.6 29.2 93.6 28.8 93.6 28.5V24.6C93.6 18.4 88.6 13.4 82.4 13.4H81.4C79.1 15.1 77.5 17.9 77.3 21V45.2C77.3 42.2 79.6 39.8 82.6 39.7C82.8 39.6 82.9 39.6 83 39.6Z" fill="url(#paint0_linear)"/>
<path d="M51.8 25.9C51.8 11.6 40.2 0 25.9 0C11.6 0 0 11.6 0 25.9C0 40.2 11.6 51.8 25.9 51.8C40.2 51.8 51.8 40.2 51.8 25.9ZM25.9 30.5C23.4 30.5 21.3 28.5 21.3 25.9C21.3 23.4 23.3 21.3 25.9 21.3C28.4 21.3 30.5 23.3 30.5 25.9C30.5 28.4 28.4 30.5 25.9 30.5Z" fill="url(#paint1_linear)"/>
<path d="M25.9 0C24 0 22.2 0.2 20.5 0.6C27.3 4.1 31.9 11.2 31.9 19.4C31.9 23.1 30.9 26.6 29.3 29.6L19.3 50.9L16.6 56.7C16 58 15.7 59.4 15.7 60.9C15.7 66.6 20.3 71.1 26 71.1C29.7 71.1 33 69.1 34.8 66.1L48.7 38.6L49.9 36.2V36.1C51.3 33 52 29.5 52 25.8C51.8 11.6 40.2 0 25.9 0Z" fill="url(#paint2_linear)"/>
<path d="M159.7 56.8C160 55.8 160.2 54.8001 160.2 53.7001C160.2 51.4001 159.5 49.3 158.3 47.6L157.9 47L153 40.3L152.2 39.3C152.4 39.7 152.6 40.1 152.6 40.6C152.6 40.9 152.5 41.2 152.4 41.5C152.4 41.6 152.3 41.7 152.3 41.8L151.7 43.1L150 46.6C148.2 50.4 149.7 54.9001 153.5 56.7001C155.5 57.6 157.8 57.6 159.7 56.8Z" fill="url(#paint3_linear)"/>
<path d="M176.5 26.6L177.7 24.2C179.5 20.4 178 15.9 174.2 14.1C173.3 13.6 172.3 13.4 171.3 13.3C171.2 13.3 171.1 13.3 171 13.3C170.9 13.3 170.8 13.3 170.7 13.3C167.9 13.3 165.3 14.9 164 17.5L161.6 22.4C161.4 22.9 160.9 23.3 160.3 23.3C159.9 23.3 159.5 23.1 159.2 22.8L160.5 24.7C160.5 24.7 160.5 24.8 160.6 24.8C162.6 27.5 165.8 29.2 169.4 29.2C172.1 29.2 174.6 28.2 176.5 26.6Z" fill="url(#paint4_linear)"/>
<path d="M121.3 49C124.3 49 127 50.5 128.5 52.7999L128.6 53C128.8 53.2999 129 53.7 129.1 54C131.2 57 135.3 58.2 138.7 56.5C142.5 54.7 144 50.1 142.2 46.4L135.9 33.5L128.1 17.4C126.8 14.8 124.2 13.2 121.4 13.2C121.3 13.2 121.2 13.2 121.1 13.2C121 13.2 120.9 13.2 120.8 13.2C118 13.2 115.4 14.8 114.1 17.4L106.3 33.5L100 46.4C98.2 50.2 99.7 54.7 103.5 56.5C106.9 58.2 111 57 113.1 54C113.3 53.7 113.5 53.4 113.7 53L113.8 52.7999C115.7 50.5 118.3 49 121.3 49Z" fill="url(#paint5_linear)"/>
<path d="M126.5 48.7001C126.9 49.3001 127.2 50 127.6 50.7001C127.8 51.1 128 51.5001 128.1 51.9001L128.6 52.9001L128.7 53.1C128.9 53.4 129.1 53.8 129.2 54.1C131.3 57.1 135.4 58.3 138.8 56.6C142.6 54.8 144.1 50.2001 142.3 46.5L136 33.6L129.5 20.3C128.3 24.8 124.2 28.2001 119.2 28.2001C118.6 28.2001 118.1 28.2 117.6 28.1C116.8 28.0001 115.9 27.9 115.1 27.9C112.8 27.9 110.5 28.4 108.6 29.4L106.5 33.7001L102.3 42.3C104.9 40.9 107.8 40.1 110.9 40.1C113.9 40.1 116.8 40.8 119.3 42.1C122.3 43.5 124.8 45.8001 126.5 48.7001Z" fill="url(#paint6_linear)"/>
<path d="M158.2 47.5C158.3 47.5 158.3 47.5 158.2 47.5C159.4 49.2999 160.1 51.4 160.1 53.7C160.1 54.7999 159.9 55.7999 159.6 56.7999C160.9 56.2999 162.1 55.3999 162.9 54.0999C163 54 163 54 163 53.9C163.1 53.7 163.3 53.4 163.4 53.2L163.5 53L170.4 38.7999L170.7 38.2L171.1 37.2999L176.2 26.8C174.3 28.4 171.8 29.4 169.1 29.4C165.5 29.4 162.3 27.7 160.3 25L160.2 24.9L158.9 23L158.8 22.9L155.1 17.8C153.6 15.8 151.3 14.7 149 14.7C148.6 14.7 148.2 14.7 147.8 14.8C147.7 14.8 147.6 14.8 147.5 14.8C147.4 14.8 147.3 14.8 147.2 14.9C146.2 15.1 145.3 15.5 144.5 16.1C141.1 18.6 140.3 23.3 142.8 26.7L151.2 38.2999L151.8 39.0999C151.9 39.1999 151.9 39.2999 152 39.2999L152.8 40.2999L157.7 47C158 47.0999 158.1 47.2999 158.2 47.5Z" fill="url(#paint7_linear)"/>
<path d="M69.8 57.3C74 57.3 77.4 53.9 77.4 49.7V22C77.4 21.8 77.4 21.6 77.4 21.5C77.4 21.4 77.4 21.2 77.4 21C77.6 17.9 79.1 15.2 81.5 13.4H70C69.9 13.4 69.8 13.4 69.8 13.4C65.6 13.4 62.2 16.8 62.2 21V49.9C62.2 54 65.6 57.3 69.8 57.3Z" fill="url(#paint8_linear)"/>
<defs>
<linearGradient id="paint0_linear" x1="88.5498" y1="38.7072" x2="75.2281" y2="14.9759" gradientUnits="userSpaceOnUse">
<stop stop-color="#30548B"/>
<stop offset="1" stop-color="#4778BB"/>
</linearGradient>
<linearGradient id="paint1_linear" x1="33.6311" y1="32.6375" x2="-0.643069" y2="2.83009" gradientUnits="userSpaceOnUse">
<stop stop-color="#30548B"/>
<stop offset="0.1859" stop-color="#30548B"/>
<stop offset="0.4106" stop-color="#44788E"/>
<stop offset="0.7897" stop-color="#6FC387"/>
<stop offset="1" stop-color="#6FC387"/>
</linearGradient>
<linearGradient id="paint2_linear" x1="33.632" y1="57.0511" x2="33.632" y2="16.4331" gradientUnits="userSpaceOnUse">
<stop stop-color="#4A96D1"/>
<stop offset="1" stop-color="#6FC387"/>
</linearGradient>
<linearGradient id="paint3_linear" x1="157.774" y1="53.5584" x2="150.202" y2="45.5293" gradientUnits="userSpaceOnUse">
<stop stop-color="#30548B"/>
<stop offset="0.9838" stop-color="#4778BB"/>
<stop offset="1" stop-color="#4778BB"/>
</linearGradient>
<linearGradient id="paint4_linear" x1="173.693" y1="26.2973" x2="161.033" y2="11.8041" gradientUnits="userSpaceOnUse">
<stop stop-color="#30548B"/>
<stop offset="0.9838" stop-color="#4778BB"/>
<stop offset="1" stop-color="#4778BB"/>
</linearGradient>
<linearGradient id="paint5_linear" x1="124.606" y1="49.3427" x2="108.703" y2="27.7101" gradientUnits="userSpaceOnUse">
<stop stop-color="#30548B"/>
<stop offset="0.9838" stop-color="#4778BB"/>
<stop offset="1" stop-color="#4778BB"/>
</linearGradient>
<linearGradient id="paint6_linear" x1="136.659" y1="50.943" x2="107.211" y2="22.799" gradientUnits="userSpaceOnUse">
<stop stop-color="#4896D2"/>
<stop offset="1" stop-color="#52BDD0"/>
</linearGradient>
<linearGradient id="paint7_linear" x1="170.49" y1="44.2145" x2="143.653" y2="15.2358" gradientUnits="userSpaceOnUse">
<stop stop-color="#4896D2"/>
<stop offset="1" stop-color="#52BDD0"/>
</linearGradient>
<linearGradient id="paint8_linear" x1="71.878" y1="53.7844" x2="71.878" y2="19.702" gradientUnits="userSpaceOnUse">
<stop stop-color="#4896D2"/>
<stop offset="1" stop-color="#52BDD0"/>
</linearGradient>
</defs>
</svg>
