<svg width="24" height="24" viewBox="0 0 24 24" fill="none" xmlns="http://www.w3.org/2000/svg">
<path d="M8.25 21C9.07843 21 9.75 20.3284 9.75 19.5C9.75 18.6716 9.07843 18 8.25 18C7.42157 18 6.75 18.6716 6.75 19.5C6.75 20.3284 7.42157 21 8.25 21Z" fill="#373737"/>
<path d="M18.75 21C19.5784 21 20.25 20.3284 20.25 19.5C20.25 18.6716 19.5784 18 18.75 18C17.9216 18 17.25 18.6716 17.25 19.5C17.25 20.3284 17.9216 21 18.75 21Z" fill="#373737"/>
<path d="M21.4781 5.75156C21.3094 5.50312 21.0562 5.32969 20.7609 5.27344C20.6906 5.25938 20.6156 5.25 20.5406 5.25H6.27656L5.99063 3.61875C5.92969 3.2625 5.61562 3 5.25 3H2.25C1.8375 3 1.5 3.3375 1.5 3.75C1.5 4.1625 1.8375 4.5 2.25 4.5H4.62187L6.76406 16.6312C6.825 16.9875 7.13906 17.25 7.50469 17.25H19.5047C19.9172 17.25 20.2547 16.9125 20.2547 16.5C20.2547 16.0875 19.9172 15.75 19.5047 15.75H8.12812L7.86563 14.25H19.1953C19.7297 14.25 20.1938 13.8703 20.2969 13.3453L21.6469 6.59531C21.7031 6.3 21.6469 6 21.4781 5.75156ZM18.8859 12.75H7.59844L6.53906 6.75H20.0812L18.8859 12.75Z" fill="#373737"/>
</svg>
